<?xml version="1.0" encoding="UTF-8" standalone="no"?>
<svg width="2225px" height="500px" viewBox="0 0 2225 500" version="1.1" xmlns="http://www.w3.org/2000/svg" xmlns:xlink="http://www.w3.org/1999/xlink">
    <!-- Generator: Sketch 49.3 (51167) - http://www.bohemiancoding.com/sketch -->
    <title>grapedrop-logo-dark-white</title>
    <desc>Created with Sketch.</desc>
    <defs>
        <linearGradient x1="0%" y1="0%" x2="100%" y2="100%" id="linearGradient-1">
            <stop stop-color="#EAB3D5" offset="0%"></stop>
            <stop stop-color="#D06E9A" offset="100%"></stop>
        </linearGradient>
    </defs>
    <g stroke="none" stroke-width="1" fill="none" fill-rule="evenodd">
        <path d="M803.671875,347.425781 C794.999957,359.847718 782.900468,369.134735 767.373047,375.287109 C751.845625,381.439484 733.769634,384.515625 713.144531,384.515625 C692.285052,384.515625 673.769612,379.623096 657.597656,369.837891 C641.4257,360.052685 628.91606,346.136809 620.068359,328.089844 C611.220659,310.042879 606.679689,289.125119 606.445312,265.335938 L606.445312,243.011719 C606.445312,204.456838 615.439363,174.574325 633.427734,153.363281 C651.416106,132.152238 676.699056,121.546875 709.277344,121.546875 C735.996227,121.546875 757.499919,128.372979 773.789062,142.025391 C790.078206,155.677803 800.039044,175.042843 803.671875,200.121094 L769.921875,200.121094 C763.593718,166.253737 743.43767,149.320312 709.453125,149.320312 C686.835824,149.320312 669.697324,157.259686 658.037109,173.138672 C646.376895,189.017658 640.488282,212.015474 640.371094,242.132812 L640.371094,263.050781 C640.371094,291.761862 646.933528,314.5839 660.058594,331.517578 C673.183659,348.451257 690.937388,356.917969 713.320312,356.917969 C725.976626,356.917969 737.050734,355.511733 746.542969,352.699219 C756.035204,349.886705 763.886688,345.140658 770.097656,338.460938 L770.097656,280.980469 L710.859375,280.980469 L710.859375,253.558594 L803.671875,253.558594 L803.671875,347.425781 Z M941.757812,219.984375 C936.835913,219.164058 931.503935,218.753906 925.761719,218.753906 C904.433487,218.753906 889.960976,227.835847 882.34375,246 L882.34375,381 L849.824219,381 L849.824219,190.804688 L881.464844,190.804688 L881.992188,212.777344 C892.656303,195.785071 907.77334,187.289062 927.34375,187.289062 C933.671907,187.289062 938.476546,188.109367 941.757812,189.75 L941.757812,219.984375 Z M1077.03125,381 C1075.15624,377.249981 1073.63282,370.570361 1072.46094,360.960938 C1057.34367,376.664141 1039.29698,384.515625 1018.32031,384.515625 C999.570219,384.515625 984.189513,379.212944 972.177734,368.607422 C960.165956,358.0019 954.160156,344.554769 954.160156,328.265625 C954.160156,308.460838 961.689378,293.080133 976.748047,282.123047 C991.806716,271.165961 1012.98814,265.6875 1040.29297,265.6875 L1071.93359,265.6875 L1071.93359,250.746094 C1071.93359,239.378849 1068.53519,230.326206 1061.73828,223.587891 C1054.94137,216.849576 1044.92194,213.480469 1031.67969,213.480469 C1020.07807,213.480469 1010.3516,216.410127 1002.5,222.269531 C994.648398,228.128936 990.722656,235.218708 990.722656,243.539062 L958.027344,243.539062 C958.027344,234.046828 961.396451,224.876997 968.134766,216.029297 C974.873081,207.181596 984.013614,200.179713 995.556641,195.023438 C1007.09967,189.867162 1019.78509,187.289062 1033.61328,187.289062 C1055.52745,187.289062 1072.69525,192.767523 1085.11719,203.724609 C1097.53912,214.681695 1103.98437,229.769435 1104.45312,248.988281 L1104.45312,336.527344 C1104.45312,353.988369 1106.67967,367.874948 1111.13281,378.1875 L1111.13281,381 L1077.03125,381 Z M1023.06641,356.214844 C1033.26177,356.214844 1042.92964,353.578151 1052.07031,348.304688 C1061.21098,343.031224 1067.83201,336.175823 1071.93359,327.738281 L1071.93359,288.714844 L1046.44531,288.714844 C1006.60136,288.714844 986.679688,300.374883 986.679688,323.695312 C986.679688,333.890676 990.078091,341.859346 996.875,347.601562 C1003.67191,353.343779 1012.40229,356.214844 1023.06641,356.214844 Z M1311.09375,288.011719 C1311.09375,316.957176 1304.47272,340.277255 1291.23047,357.972656 C1277.98822,375.668057 1260.05871,384.515625 1237.44141,384.515625 C1214.35535,384.515625 1196.19147,377.191479 1182.94922,362.542969 L1182.94922,454.125 L1150.42969,454.125 L1150.42969,190.804688 L1180.13672,190.804688 L1181.71875,211.898438 C1194.961,195.492105 1213.35926,187.289062 1236.91406,187.289062 C1259.76574,187.289062 1277.84173,195.902258 1291.14258,213.128906 C1304.44343,230.355555 1311.09375,254.320159 1311.09375,285.023438 L1311.09375,288.011719 Z M1278.57422,284.320312 C1278.57422,262.874893 1274.00395,245.941468 1264.86328,233.519531 C1255.72261,221.097594 1243.18367,214.886719 1227.24609,214.886719 C1207.5585,214.886719 1192.79302,223.6171 1182.94922,241.078125 L1182.94922,331.957031 C1192.67583,349.300868 1207.55849,357.972656 1227.59766,357.972656 C1243.18367,357.972656 1255.57613,351.791077 1264.77539,339.427734 C1273.97466,327.064391 1278.57422,308.695434 1278.57422,284.320312 Z M1426.32812,384.515625 C1400.54675,384.515625 1379.57039,376.048913 1363.39844,359.115234 C1347.22648,342.181556 1339.14062,319.535298 1339.14062,291.175781 L1339.14062,285.199219 C1339.14062,266.331937 1342.7441,249.486402 1349.95117,234.662109 C1357.15824,219.837817 1367.23626,208.23637 1380.18555,199.857422 C1393.13483,191.478474 1407.16789,187.289062 1422.28516,187.289062 C1447.01184,187.289062 1466.2304,195.433512 1479.94141,211.722656 C1493.65241,228.0118 1500.50781,251.331879 1500.50781,281.683594 L1500.50781,295.21875 L1371.66016,295.21875 C1372.12891,313.968844 1377.60737,329.115177 1388.0957,340.658203 C1398.58404,352.20123 1411.91398,357.972656 1428.08594,357.972656 C1439.57037,357.972656 1449.29684,355.62893 1457.26562,350.941406 C1465.23441,346.253883 1472.207,340.043007 1478.18359,332.308594 L1498.04688,347.777344 C1482.1093,372.269654 1458.20328,384.515625 1426.32812,384.515625 Z M1422.28516,214.007812 C1409.16009,214.007812 1398.14458,218.783155 1389.23828,228.333984 C1380.33199,237.884813 1374.82423,251.273351 1372.71484,268.5 L1467.98828,268.5 L1467.98828,266.039062 C1467.05078,249.515542 1462.5977,236.712936 1454.62891,227.630859 C1446.66012,218.548783 1435.87897,214.007812 1422.28516,214.007812 Z M1525.21484,284.320312 C1525.21484,255.140479 1532.12884,231.673917 1545.95703,213.919922 C1559.78523,196.165927 1577.89051,187.289062 1600.27344,187.289062 C1622.53917,187.289062 1640.17572,194.906174 1653.18359,210.140625 L1653.18359,111 L1685.70312,111 L1685.70312,381 L1655.82031,381 L1654.23828,360.609375 C1641.2304,376.546955 1623.12512,384.515625 1599.92188,384.515625 C1577.89051,384.515625 1559.93171,375.492278 1546.04492,357.445312 C1532.15813,339.398347 1525.21484,315.843895 1525.21484,286.78125 L1525.21484,284.320312 Z M1557.73438,288.011719 C1557.73438,309.574327 1562.18746,326.449158 1571.09375,338.636719 C1580.00004,350.82428 1592.30461,356.917969 1608.00781,356.917969 C1628.63292,356.917969 1643.69136,347.660249 1653.18359,329.144531 L1653.18359,241.78125 C1643.45698,223.851473 1628.51573,214.886719 1608.35938,214.886719 C1592.4218,214.886719 1580.00004,221.039001 1571.09375,233.34375 C1562.18746,245.648499 1557.73438,263.870973 1557.73438,288.011719 Z M1823.08594,219.984375 C1818.16404,219.164058 1812.83206,218.753906 1807.08984,218.753906 C1785.76161,218.753906 1771.2891,227.835847 1763.67188,246 L1763.67188,381 L1731.15234,381 L1731.15234,190.804688 L1762.79297,190.804688 L1763.32031,212.777344 C1773.98443,195.785071 1789.10146,187.289062 1808.67188,187.289062 C1815.00003,187.289062 1819.80467,188.109367 1823.08594,189.75 L1823.08594,219.984375 Z M1835.83984,284.144531 C1835.83984,265.511626 1839.50192,248.753981 1846.82617,233.871094 C1854.15043,218.988207 1864.34564,207.503947 1877.41211,199.417969 C1890.47858,191.331991 1905.39054,187.289062 1922.14844,187.289062 C1948.047,187.289062 1968.99406,196.253817 1984.99023,214.183594 C2000.98641,232.113371 2008.98438,255.960789 2008.98438,285.726562 L2008.98438,288.011719 C2008.98438,306.527436 2005.43949,323.138598 1998.34961,337.845703 C1991.25973,352.552808 1981.12311,364.007771 1967.93945,372.210938 C1954.75579,380.414104 1939.60946,384.515625 1922.5,384.515625 C1896.71862,384.515625 1875.83016,375.550871 1859.83398,357.621094 C1843.83781,339.691317 1835.83984,315.961085 1835.83984,286.429688 L1835.83984,284.144531 Z M1868.53516,288.011719 C1868.53516,309.105574 1873.42769,326.038999 1883.21289,338.8125 C1892.9981,351.586001 1906.09367,357.972656 1922.5,357.972656 C1939.02352,357.972656 1952.14839,351.498112 1961.875,338.548828 C1971.60161,325.599545 1976.46484,307.46496 1976.46484,284.144531 C1976.46484,263.285052 1971.51372,246.380924 1961.61133,233.431641 C1951.70893,220.482357 1938.55477,214.007812 1922.14844,214.007812 C1906.09367,214.007812 1893.14458,220.394467 1883.30078,233.167969 C1873.45698,245.94147 1868.53516,264.222537 1868.53516,288.011719 Z M2205.42969,288.011719 C2205.42969,316.957176 2198.80866,340.277255 2185.56641,357.972656 C2172.32415,375.668057 2154.39464,384.515625 2131.77734,384.515625 C2108.69129,384.515625 2090.52741,377.191479 2077.28516,362.542969 L2077.28516,454.125 L2044.76562,454.125 L2044.76562,190.804688 L2074.47266,190.804688 L2076.05469,211.898438 C2089.29694,195.492105 2107.69519,187.289062 2131.25,187.289062 C2154.10168,187.289062 2172.17767,195.902258 2185.47852,213.128906 C2198.77936,230.355555 2205.42969,254.320159 2205.42969,285.023438 L2205.42969,288.011719 Z M2172.91016,284.320312 C2172.91016,262.874893 2168.33989,245.941468 2159.19922,233.519531 C2150.05855,221.097594 2137.51961,214.886719 2121.58203,214.886719 C2101.89443,214.886719 2087.12896,223.6171 2077.28516,241.078125 L2077.28516,331.957031 C2087.01177,349.300868 2101.89443,357.972656 2121.93359,357.972656 C2137.51961,357.972656 2149.91206,351.791077 2159.11133,339.427734 C2168.31059,327.064391 2172.91016,308.695434 2172.91016,284.320312 Z" fill="#FFFFFF"></path>
        <g transform="translate(1.000000, 1.000000)">
            <circle fill="#FFFFFF" fill-rule="evenodd" cx="250" cy="250" r="249"></circle>
            <path d="M243.664082,103.558858 L161.460627,247.205767 C144.186418,277.574619 142.852224,316.189676 161.460627,348.706818 C189.433829,397.588565 251.659,414.493783 300.444357,386.464755 C349.229714,358.436081 366.101474,296.087868 338.127919,247.205413 L255.924464,103.558858 C253.209082,98.813714 246.379111,98.813714 243.664082,103.558858 Z" fill="url(#linearGradient-1)" fill-rule="nonzero"></path>
        </g>
    </g>
</svg>