<?xml version="1.0" encoding="UTF-8" standalone="no"?>
<svg width="2225px" height="500px" viewBox="0 0 2225 500" version="1.1" xmlns="http://www.w3.org/2000/svg" xmlns:xlink="http://www.w3.org/1999/xlink">
    <!-- Generator: Sketch 49.3 (51167) - http://www.bohemiancoding.com/sketch -->
    <title>grapedrop-logo-black</title>
    <desc>Created with Sketch.</desc>
    <defs></defs>
    <g stroke="none" stroke-width="1" fill="none" fill-rule="evenodd">
        <path d="M803.226562,329.425781 C794.554644,341.847718 782.455156,351.134735 766.927734,357.287109 C751.400313,363.439484 733.324322,366.515625 712.699219,366.515625 C691.839739,366.515625 673.3243,361.623096 657.152344,351.837891 C640.980388,342.052685 628.470747,328.136809 619.623047,310.089844 C610.775346,292.042879 606.234376,271.125119 606,247.335938 L606,225.011719 C606,186.456838 614.994051,156.574325 632.982422,135.363281 C650.970793,114.152238 676.253743,103.546875 708.832031,103.546875 C735.550915,103.546875 757.054606,110.372979 773.34375,124.025391 C789.632894,137.677803 799.593732,157.042843 803.226562,182.121094 L769.476562,182.121094 C763.148406,148.253737 742.992357,131.320312 709.007812,131.320312 C686.390512,131.320312 669.252011,139.259686 657.591797,155.138672 C645.931582,171.017658 640.042969,194.015474 639.925781,224.132812 L639.925781,245.050781 C639.925781,273.761862 646.488216,296.5839 659.613281,313.517578 C672.738347,330.451257 690.492076,338.917969 712.875,338.917969 C725.531313,338.917969 736.605421,337.511733 746.097656,334.699219 C755.589891,331.886705 763.441375,327.140658 769.652344,320.460938 L769.652344,262.980469 L710.414062,262.980469 L710.414062,235.558594 L803.226562,235.558594 L803.226562,329.425781 Z M941.3125,201.984375 C936.3906,201.164058 931.058622,200.753906 925.316406,200.753906 C903.988175,200.753906 889.515663,209.835847 881.898438,228 L881.898438,363 L849.378906,363 L849.378906,172.804688 L881.019531,172.804688 L881.546875,194.777344 C892.210991,177.785071 907.328027,169.289062 926.898438,169.289062 C933.226594,169.289062 938.031234,170.109367 941.3125,171.75 L941.3125,201.984375 Z M1076.58594,363 C1074.71093,359.249981 1073.18751,352.570361 1072.01562,342.960938 C1056.89836,358.664141 1038.85167,366.515625 1017.875,366.515625 C999.124906,366.515625 983.744201,361.212944 971.732422,350.607422 C959.720643,340.0019 953.714844,326.554769 953.714844,310.265625 C953.714844,290.460838 961.244065,275.080133 976.302734,264.123047 C991.361403,253.165961 1012.54283,247.6875 1039.84766,247.6875 L1071.48828,247.6875 L1071.48828,232.746094 C1071.48828,221.378849 1068.08988,212.326206 1061.29297,205.587891 C1054.49606,198.849576 1044.47663,195.480469 1031.23438,195.480469 C1019.63275,195.480469 1009.90629,198.410127 1002.05469,204.269531 C994.203086,210.128936 990.277344,217.218708 990.277344,225.539062 L957.582031,225.539062 C957.582031,216.046828 960.951138,206.876997 967.689453,198.029297 C974.427768,189.181596 983.568302,182.179713 995.111328,177.023438 C1006.65435,171.867162 1019.33977,169.289062 1033.16797,169.289062 C1055.08214,169.289062 1072.24994,174.767523 1084.67188,185.724609 C1097.09381,196.681695 1103.53906,211.769435 1104.00781,230.988281 L1104.00781,318.527344 C1104.00781,335.988369 1106.23435,349.874948 1110.6875,360.1875 L1110.6875,363 L1076.58594,363 Z M1022.62109,338.214844 C1032.81646,338.214844 1042.48433,335.578151 1051.625,330.304688 C1060.76567,325.031224 1067.3867,318.175823 1071.48828,309.738281 L1071.48828,270.714844 L1046,270.714844 C1006.15605,270.714844 986.234375,282.374883 986.234375,305.695312 C986.234375,315.890676 989.632779,323.859346 996.429688,329.601562 C1003.2266,335.343779 1011.95698,338.214844 1022.62109,338.214844 Z M1310.64844,270.011719 C1310.64844,298.957176 1304.02741,322.277255 1290.78516,339.972656 C1277.5429,357.668057 1259.61339,366.515625 1236.99609,366.515625 C1213.91004,366.515625 1195.74616,359.191479 1182.50391,344.542969 L1182.50391,436.125 L1149.98438,436.125 L1149.98438,172.804688 L1179.69141,172.804688 L1181.27344,193.898438 C1194.51569,177.492105 1212.91394,169.289062 1236.46875,169.289062 C1259.32043,169.289062 1277.39642,177.902258 1290.69727,195.128906 C1303.99811,212.355555 1310.64844,236.320159 1310.64844,267.023438 L1310.64844,270.011719 Z M1278.12891,266.320312 C1278.12891,244.874893 1273.55864,227.941468 1264.41797,215.519531 C1255.2773,203.097594 1242.73836,196.886719 1226.80078,196.886719 C1207.11318,196.886719 1192.34771,205.6171 1182.50391,223.078125 L1182.50391,313.957031 C1192.23052,331.300868 1207.11318,339.972656 1227.15234,339.972656 C1242.73836,339.972656 1255.13081,333.791077 1264.33008,321.427734 C1273.52934,309.064391 1278.12891,290.695434 1278.12891,266.320312 Z M1425.88281,366.515625 C1400.10143,366.515625 1379.12508,358.048913 1362.95312,341.115234 C1346.78117,324.181556 1338.69531,301.535298 1338.69531,273.175781 L1338.69531,267.199219 C1338.69531,248.331937 1342.29879,231.486402 1349.50586,216.662109 C1356.71293,201.837817 1366.79095,190.23637 1379.74023,181.857422 C1392.68952,173.478474 1406.72258,169.289062 1421.83984,169.289062 C1446.56653,169.289062 1465.78509,177.433512 1479.49609,193.722656 C1493.2071,210.0118 1500.0625,233.331879 1500.0625,263.683594 L1500.0625,277.21875 L1371.21484,277.21875 C1371.6836,295.968844 1377.16206,311.115177 1387.65039,322.658203 C1398.13872,334.20123 1411.46867,339.972656 1427.64062,339.972656 C1439.12506,339.972656 1448.85152,337.62893 1456.82031,332.941406 C1464.7891,328.253883 1471.76169,322.043007 1477.73828,314.308594 L1497.60156,329.777344 C1481.66398,354.269654 1457.75797,366.515625 1425.88281,366.515625 Z M1421.83984,196.007812 C1408.71478,196.007812 1397.69926,200.783155 1388.79297,210.333984 C1379.88667,219.884813 1374.37892,233.273351 1372.26953,250.5 L1467.54297,250.5 L1467.54297,248.039062 C1466.60546,231.515542 1462.15238,218.712936 1454.18359,209.630859 C1446.2148,200.548783 1435.43366,196.007812 1421.83984,196.007812 Z M1524.76953,266.320312 C1524.76953,237.140479 1531.68352,213.673917 1545.51172,195.919922 C1559.33991,178.165927 1577.4452,169.289062 1599.82812,169.289062 C1622.09386,169.289062 1639.7304,176.906174 1652.73828,192.140625 L1652.73828,93 L1685.25781,93 L1685.25781,363 L1655.375,363 L1653.79297,342.609375 C1640.78509,358.546955 1622.6798,366.515625 1599.47656,366.515625 C1577.4452,366.515625 1559.4864,357.492278 1545.59961,339.445312 C1531.71282,321.398347 1524.76953,297.843895 1524.76953,268.78125 L1524.76953,266.320312 Z M1557.28906,270.011719 C1557.28906,291.574327 1561.74214,308.449158 1570.64844,320.636719 C1579.55473,332.82428 1591.8593,338.917969 1607.5625,338.917969 C1628.1876,338.917969 1643.24605,329.660249 1652.73828,311.144531 L1652.73828,223.78125 C1643.01167,205.851473 1628.07041,196.886719 1607.91406,196.886719 C1591.97648,196.886719 1579.55473,203.039001 1570.64844,215.34375 C1561.74214,227.648499 1557.28906,245.870973 1557.28906,270.011719 Z M1822.64062,201.984375 C1817.71873,201.164058 1812.38675,200.753906 1806.64453,200.753906 C1785.3163,200.753906 1770.84379,209.835847 1763.22656,228 L1763.22656,363 L1730.70703,363 L1730.70703,172.804688 L1762.34766,172.804688 L1762.875,194.777344 C1773.53912,177.785071 1788.65615,169.289062 1808.22656,169.289062 C1814.55472,169.289062 1819.35936,170.109367 1822.64062,171.75 L1822.64062,201.984375 Z M1835.39453,266.144531 C1835.39453,247.511626 1839.0566,230.753981 1846.38086,215.871094 C1853.70511,200.988207 1863.90033,189.503947 1876.9668,181.417969 C1890.03327,173.331991 1904.94523,169.289062 1921.70312,169.289062 C1947.60169,169.289062 1968.54875,178.253817 1984.54492,196.183594 C2000.5411,214.113371 2008.53906,237.960789 2008.53906,267.726562 L2008.53906,270.011719 C2008.53906,288.527436 2004.99418,305.138598 1997.9043,319.845703 C1990.81442,334.552808 1980.6778,346.007771 1967.49414,354.210938 C1954.31048,362.414104 1939.16415,366.515625 1922.05469,366.515625 C1896.27331,366.515625 1875.38485,357.550871 1859.38867,339.621094 C1843.3925,321.691317 1835.39453,297.961085 1835.39453,268.429688 L1835.39453,266.144531 Z M1868.08984,270.011719 C1868.08984,291.105574 1872.98237,308.038999 1882.76758,320.8125 C1892.55278,333.586001 1905.64836,339.972656 1922.05469,339.972656 C1938.57821,339.972656 1951.70308,333.498112 1961.42969,320.548828 C1971.1563,307.599545 1976.01953,289.46496 1976.01953,266.144531 C1976.01953,245.285052 1971.06841,228.380924 1961.16602,215.431641 C1951.26362,202.482357 1938.10946,196.007812 1921.70312,196.007812 C1905.64836,196.007812 1892.69927,202.394467 1882.85547,215.167969 C1873.01167,227.94147 1868.08984,246.222537 1868.08984,270.011719 Z M2204.98438,270.011719 C2204.98438,298.957176 2198.36335,322.277255 2185.12109,339.972656 C2171.87884,357.668057 2153.94933,366.515625 2131.33203,366.515625 C2108.24598,366.515625 2090.0821,359.191479 2076.83984,344.542969 L2076.83984,436.125 L2044.32031,436.125 L2044.32031,172.804688 L2074.02734,172.804688 L2075.60938,193.898438 C2088.85163,177.492105 2107.24988,169.289062 2130.80469,169.289062 C2153.65636,169.289062 2171.73236,177.902258 2185.0332,195.128906 C2198.33405,212.355555 2204.98438,236.320159 2204.98438,267.023438 L2204.98438,270.011719 Z M2172.46484,266.320312 C2172.46484,244.874893 2167.89458,227.941468 2158.75391,215.519531 C2149.61324,203.097594 2137.0743,196.886719 2121.13672,196.886719 C2101.44912,196.886719 2086.68364,205.6171 2076.83984,223.078125 L2076.83984,313.957031 C2086.56645,331.300868 2101.44912,339.972656 2121.48828,339.972656 C2137.0743,339.972656 2149.46675,333.791077 2158.66602,321.427734 C2167.86528,309.064391 2172.46484,290.695434 2172.46484,266.320312 Z" fill="#000000"></path>
        <g transform="translate(1.000000, 1.000000)">
            <circle fill="#000000" fill-rule="evenodd" cx="250" cy="250" r="249"></circle>
            <path d="M243.664082,103.558858 L161.460627,247.205767 C144.186418,277.574619 142.852224,316.189676 161.460627,348.706818 C189.433829,397.588565 251.659,414.493783 300.444357,386.464755 C349.229714,358.436081 366.101474,296.087868 338.127919,247.205413 L255.924464,103.558858 C253.209082,98.813714 246.379111,98.813714 243.664082,103.558858 Z" fill="#FFFFFF" fill-rule="nonzero"></path>
        </g>
    </g>
</svg>